<?xml version="1.0" encoding="UTF-8"?>
<svg xmlns="http://www.w3.org/2000/svg" xmlns:xlink="http://www.w3.org/1999/xlink" width="24pt" height="24pt" viewBox="0 0 24 24" version="1.1">
<defs>
<filter id="alpha" filterUnits="objectBoundingBox" x="0%" y="0%" width="100%" height="100%">
  <feColorMatrix type="matrix" in="SourceGraphic" values="0 0 0 0 1 0 0 0 0 1 0 0 0 0 1 0 0 0 1 0"/>
</filter>
<mask id="mask0">
  <g filter="url(#alpha)">
<rect x="0" y="0" width="24" height="24" style="fill:rgb(0%,0%,0%);fill-opacity:0.2;stroke:none;"/>
  </g>
</mask>
<clipPath id="clip1">
  <rect width="24" height="24"/>
</clipPath>
<g id="surface6" clip-path="url(#clip1)">
<path style=" stroke:none;fill-rule:nonzero;fill:rgb(100%,100%,100%);fill-opacity:1;" d="M 12.011719 0.25 C 5.683594 0.25 0.550781 5.382812 0.550781 11.714844 C 0.550781 11.824219 0.554688 11.9375 0.5625 12.046875 C 0.691406 5.816406 5.78125 0.828125 12.011719 0.824219 C 18.210938 0.828125 23.285156 5.757812 23.464844 11.953125 C 23.46875 11.875 23.472656 11.792969 23.476562 11.714844 C 23.476562 5.382812 18.34375 0.25 12.011719 0.25 Z M 12.011719 0.25 "/>
</g>
<mask id="mask1">
  <g filter="url(#alpha)">
<rect x="0" y="0" width="24" height="24" style="fill:rgb(0%,0%,0%);fill-opacity:0.2;stroke:none;"/>
  </g>
</mask>
<clipPath id="clip2">
  <rect width="24" height="24"/>
</clipPath>
<g id="surface9" clip-path="url(#clip2)">
<path style=" stroke:none;fill-rule:nonzero;fill:rgb(0%,0%,0%);fill-opacity:1;" d="M 23.464844 11.953125 C 23.335938 18.1875 18.246094 23.171875 12.011719 23.175781 C 5.816406 23.171875 0.742188 18.242188 0.5625 12.046875 C 0.558594 12.125 0.554688 12.207031 0.550781 12.285156 C 0.550781 18.617188 5.683594 23.75 12.011719 23.75 C 18.34375 23.75 23.476562 18.617188 23.476562 12.285156 C 23.472656 12.175781 23.46875 12.0625 23.464844 11.953125 Z M 23.464844 11.953125 "/>
</g>
<mask id="mask2">
  <g filter="url(#alpha)">
<rect x="0" y="0" width="24" height="24" style="fill:rgb(0%,0%,0%);fill-opacity:0.2;stroke:none;"/>
  </g>
</mask>
<clipPath id="clip3">
  <rect width="24" height="24"/>
</clipPath>
<g id="surface12" clip-path="url(#clip3)">
<path style=" stroke:none;fill-rule:nonzero;fill:rgb(0%,0%,0%);fill-opacity:1;" d="M 12.011719 4.835938 C 10.429688 4.835938 9.148438 6.117188 9.148438 7.703125 C 9.148438 9.285156 10.429688 10.566406 12.011719 10.566406 C 13.597656 10.566406 14.878906 9.285156 14.878906 7.703125 C 14.878906 6.117188 13.597656 4.835938 12.011719 4.835938 Z M 12.011719 12.285156 C 6.28125 12.289062 6.28125 15.953125 6.28125 15.953125 L 6.28125 17.445312 C 6.28125 17.445312 7.339844 19.738281 12.011719 19.738281 C 16.6875 19.738281 17.746094 17.445312 17.746094 17.445312 L 17.746094 15.953125 C 17.746094 15.953125 17.746094 12.285156 12.015625 12.285156 Z M 12.011719 12.285156 "/>
</g>
</defs>
<g id="surface1">
<path style=" stroke:none;fill-rule:nonzero;fill:rgb(100%,79.607843%,3.137255%);fill-opacity:1;" d="M 23.476562 11.714844 C 23.476562 18.042969 18.34375 23.175781 12.011719 23.175781 C 5.683594 23.175781 0.550781 18.042969 0.550781 11.714844 C 0.550781 5.382812 5.683594 0.25 12.011719 0.25 C 18.34375 0.25 23.476562 5.382812 23.476562 11.714844 Z M 23.476562 11.714844 "/>
<use xlink:href="#surface6" mask="url(#mask0)"/>
<use xlink:href="#surface9" mask="url(#mask1)"/>
<use xlink:href="#surface12" mask="url(#mask2)"/>
<path style=" stroke:none;fill-rule:nonzero;fill:rgb(17.254902%,17.254902%,17.254902%);fill-opacity:1;" d="M 12.011719 4.261719 C 10.429688 4.261719 9.148438 5.546875 9.148438 7.128906 C 9.148438 8.710938 10.429688 9.992188 12.011719 9.992188 C 13.597656 9.992188 14.878906 8.710938 14.878906 7.128906 C 14.878906 5.546875 13.597656 4.261719 12.011719 4.261719 Z M 12.011719 11.714844 C 6.28125 11.71875 6.28125 15.382812 6.28125 15.382812 L 6.28125 16.871094 C 6.28125 16.871094 7.339844 19.164062 12.011719 19.164062 C 16.6875 19.164062 17.746094 16.871094 17.746094 16.871094 L 17.746094 15.382812 C 17.746094 15.382812 17.746094 11.710938 12.015625 11.714844 Z M 12.011719 11.714844 "/>
</g>
</svg>
